<?xml version="1.0" encoding="utf-8"?>
<!-- Generator: Adobe Illustrator 27.9.1, SVG Export Plug-In . SVG Version: 6.00 Build 0)  -->
<svg version="1.1" id="Layer_1" xmlns="http://www.w3.org/2000/svg" xmlns:xlink="http://www.w3.org/1999/xlink" x="0px" y="0px"
	 viewBox="0 0 40 40" style="enable-background:new 0 0 40 40;" xml:space="preserve">
<path d="M30.9,35H17.3c-2.3,0-4.1-1.8-4.1-4.1V17.3c0-2.3,1.8-4.1,4.1-4.1h13.6c2.3,0,4.1,1.8,4.1,4.1v13.6C35,33.2,33.2,35,30.9,35
	z M17.3,15.9c-0.8,0-1.4,0.6-1.4,1.4v13.6c0,0.8,0.6,1.4,1.4,1.4h13.6c0.8,0,1.4-0.6,1.4-1.4V17.3c0-0.8-0.6-1.4-1.4-1.4H17.3z"/>
<path d="M9.1,26.8C6.8,26.8,5,25,5,22.7V9.1C5,6.8,6.8,5,9.1,5h13.6c2.3,0,4.1,1.8,4.1,4.1c0,0.8-0.6,1.4-1.4,1.4
	c-0.8,0-1.4-0.6-1.4-1.4c0-0.8-0.6-1.4-1.4-1.4H9.1c-0.8,0-1.4,0.6-1.4,1.4v13.6c0,0.8,0.6,1.4,1.4,1.4c0.8,0,1.4,0.6,1.4,1.4
	C10.5,26.2,9.8,26.8,9.1,26.8z"/>
</svg>
