<?xml version="1.0" encoding="utf-8"?>
<!-- Generator: Adobe Illustrator 27.9.1, SVG Export Plug-In . SVG Version: 6.00 Build 0)  -->
<svg version="1.1" id="Layer_1" xmlns="http://www.w3.org/2000/svg" xmlns:xlink="http://www.w3.org/1999/xlink" x="0px" y="0px"
	 viewBox="0 0 40 40" style="enable-background:new 0 0 40 40;" xml:space="preserve">
<path d="M35,13.8c0,0.3-0.1,0.5-0.3,0.7L20.7,28.5c-0.1,0.1-0.4,0.3-0.7,0.3s-0.5-0.1-0.7-0.3L5.3,14.4C5.1,14.3,5,14,5,13.8
	c0-0.3,0.1-0.5,0.3-0.7l1.5-1.5c0.1-0.1,0.4-0.3,0.7-0.3s0.5,0.1,0.7,0.3L20,23.5l11.9-11.9c0.1-0.1,0.4-0.3,0.7-0.3
	s0.5,0.1,0.7,0.3l1.5,1.5C35,13.2,35,13.5,35,13.8z"/>
</svg>
